<?xml version="1.0" encoding="UTF-8"?>
<!-- This file is generated by npm run build:icons -->
<svg xmlns="http://www.w3.org/2000/svg" xmlns:xlink="http://www.w3.org/1999/xlink" width="0" height="0">
<defs>
<symbol viewBox="0 0 24 24" fill="none" stroke="currentColor" stroke-width="2" stroke-linecap="round" stroke-linejoin="round" class="lucide lucide-audio-lines" id="audio-lines"><path d="M2 10v3"></path><path d="M6 6v11"></path><path d="M10 3v18"></path><path d="M14 8v7"></path><path d="M18 5v13"></path><path d="M22 10v3"></path></symbol>
<symbol viewBox="0 0 24 24" fill="none" stroke="currentColor" stroke-width="2" stroke-linecap="round" stroke-linejoin="round" class="lucide lucide-chart-line" id="chart"><path d="M3 3v16a2 2 0 0 0 2 2h16"></path><path d="m19 9-5 5-4-4-3 3"></path></symbol>
<symbol viewBox="0 0 24 24" fill="none" stroke="currentColor" stroke-width="2" stroke-linecap="round" stroke-linejoin="round" class="lucide lucide-check" id="check"><path d="M20 6 9 17l-5-5"></path></symbol>
<symbol viewBox="0 0 14 14" fill="none" id="checked-box">
<rect width="14" height="14" rx="4" fill="#4FD1C5"></rect>
<path d="M9.66659 5L5.99992 8.66667L4.33325 7" stroke="white" stroke-linecap="round" stroke-linejoin="round"></path>
</symbol>
<symbol viewBox="0 0 24 24" fill="none" stroke="currentColor" stroke-width="2" stroke-linecap="round" stroke-linejoin="round" class="lucide lucide-chevron-right" id="chevron-right"><path d="m9 18 6-6-6-6"></path></symbol>
<symbol viewBox="0 0 24 24" fill="none" stroke="currentColor" stroke-width="2" stroke-linecap="round" stroke-linejoin="round" class="lucide lucide-clipboard-list" id="clipboard"><rect width="8" height="4" x="8" y="2" rx="1" ry="1"></rect><path d="M16 4h2a2 2 0 0 1 2 2v14a2 2 0 0 1-2 2H6a2 2 0 0 1-2-2V6a2 2 0 0 1 2-2h2"></path><path d="M12 11h4"></path><path d="M12 16h4"></path><path d="M8 11h.01"></path><path d="M8 16h.01"></path></symbol>
<symbol viewBox="0 0 24 24" fill="none" stroke="currentColor" stroke-width="2" stroke-linecap="round" stroke-linejoin="round" class="lucide lucide-x" id="close"><path d="M18 6 6 18"></path><path d="m6 6 12 12"></path></symbol>
<symbol viewBox="0 0 24 24" fill="none" stroke="currentColor" stroke-width="2" stroke-linecap="round" stroke-linejoin="round" class="lucide lucide-ellipsis-vertical-icon lucide-ellipsis-vertical" id="ellipsis-vertical"><circle cx="12" cy="12" r="1"></circle><circle cx="12" cy="5" r="1"></circle><circle cx="12" cy="19" r="1"></circle></symbol>
<symbol viewBox="0 0 24 24" fill="none" stroke="currentColor" stroke-width="2" stroke-linecap="round" stroke-linejoin="round" class="lucide lucide-lightbulb" id="lightbulb"><path d="M15 14c.2-1 .7-1.7 1.5-2.5 1-.9 1.5-2.2 1.5-3.5A6 6 0 0 0 6 8c0 1 .2 2.2 1.5 3.5.7.7 1.3 1.5 1.5 2.5"></path><path d="M9 18h6"></path><path d="M10 22h4"></path></symbol>
<symbol viewBox="0 0 24 24" fill="none" stroke="currentColor" stroke-width="2" stroke-linecap="round" stroke-linejoin="round" class="lucide lucide-minus" id="minus"><path d="M5 12h14"></path></symbol>
<symbol viewBox="0 0 24 24" fill="none" stroke="currentColor" stroke-width="2" stroke-linecap="round" stroke-linejoin="round" class="lucide lucide-plus" id="plus"><path d="M5 12h14"></path><path d="M12 5v14"></path></symbol>
<symbol viewBox="0 0 24 24" fill="none" stroke="currentColor" stroke-width="2" stroke-linecap="round" stroke-linejoin="round" class="lucide lucide-file-question" id="question"><path d="M12 17h.01"></path><path d="M15 2H6a2 2 0 0 0-2 2v16a2 2 0 0 0 2 2h12a2 2 0 0 0 2-2V7z"></path><path d="M9.1 9a3 3 0 0 1 5.82 1c0 2-3 3-3 3"></path></symbol>
<symbol viewBox="0 0 16 18" fill="none" id="sun">
<path d="M8 1V2M8 16V17M1.07178 5L1.9378 5.5M14.0622 12.5L14.9282 13M14.9282 4.99999L14.0622 5.49999M1.93781 12.5L1.07178 13M12 9C12 6.79086 10.2091 5 8 5C5.79084 5 3.99998 6.79086 3.99998 9C3.99998 11.2091 5.79084 13 8 13C10.2091 13 12 11.2091 12 9Z" stroke="currentColor" stroke-width="1.5" stroke-linecap="round" stroke-linejoin="round"></path>
</symbol>
<symbol viewBox="0 0 24 24" fill="none" stroke="currentColor" stroke-width="2" stroke-linecap="round" stroke-linejoin="round" class="lucide lucide-languages-icon lucide-languages" id="translate"><path d="m5 8 6 6"></path><path d="m4 14 6-6 2-3"></path><path d="M2 5h12"></path><path d="M7 2h1"></path><path d="m22 22-5-10-5 10"></path><path d="M14 18h6"></path></symbol>
<symbol viewBox="0 0 14 14" fill="none" id="unchecked-box">
<rect x="0.5" y="0.5" width="13" height="13" rx="3.5" stroke="#D6DDED"></rect>
</symbol>
<symbol viewBox="0 0 24 24" fill="none" stroke="currentColor" stroke-width="2" stroke-linecap="round" stroke-linejoin="round" class="lucide lucide-webcam" id="webcam"><circle cx="12" cy="10" r="8"></circle><circle cx="12" cy="10" r="3"></circle><path d="M7 22h10"></path><path d="M12 22v-4"></path></symbol>
</defs>
</svg>
