<?xml version="1.0" encoding="UTF-8"?>
<!-- This file is generated by npm run build:icons -->
<svg xmlns="http://www.w3.org/2000/svg" xmlns:xlink="http://www.w3.org/1999/xlink" width="0" height="0">
<defs>
<symbol viewBox="0 0 24 24" fill="none" stroke="currentColor" stroke-width="2" stroke-linecap="round" stroke-linejoin="round" class="lucide lucide-audio-lines" id="audio-lines"><path d="M2 10v3"></path><path d="M6 6v11"></path><path d="M10 3v18"></path><path d="M14 8v7"></path><path d="M18 5v13"></path><path d="M22 10v3"></path></symbol>
<symbol viewBox="0 0 14 14" fill="none" id="checked-box">
<rect width="14" height="14" rx="4" fill="#4FD1C5"></rect>
<path d="M9.66659 5L5.99992 8.66667L4.33325 7" stroke="white" stroke-linecap="round" stroke-linejoin="round"></path>
</symbol>
<symbol viewBox="0 0 24 24" fill="none" stroke="currentColor" stroke-width="2" stroke-linecap="round" stroke-linejoin="round" class="lucide lucide-x" id="close"><path d="M18 6 6 18"></path><path d="m6 6 12 12"></path></symbol>
<symbol viewBox="0 0 24 24" fill="none" stroke="currentColor" stroke-width="2" stroke-linecap="round" stroke-linejoin="round" class="lucide lucide-minus" id="minus"><path d="M5 12h14"></path></symbol>
<symbol viewBox="0 0 24 24" fill="none" stroke="currentColor" stroke-width="2" stroke-linecap="round" stroke-linejoin="round" class="lucide lucide-plus" id="plus"><path d="M5 12h14"></path><path d="M12 5v14"></path></symbol>
<symbol viewBox="0 0 16 18" fill="none" id="sun">
<path d="M8 1V2M8 16V17M1.07178 5L1.9378 5.5M14.0622 12.5L14.9282 13M14.9282 4.99999L14.0622 5.49999M1.93781 12.5L1.07178 13M12 9C12 6.79086 10.2091 5 8 5C5.79084 5 3.99998 6.79086 3.99998 9C3.99998 11.2091 5.79084 13 8 13C10.2091 13 12 11.2091 12 9Z" stroke="currentColor" stroke-width="1.5" stroke-linecap="round" stroke-linejoin="round"></path>
</symbol>
<symbol viewBox="0 0 14 14" fill="none" id="unchecked-box">
<rect x="0.5" y="0.5" width="13" height="13" rx="3.5" stroke="#D6DDED"></rect>
</symbol>
</defs>
</svg>
